M48
METRIC,LZ,000.000
T01C0.551
;Holesize 2 = 0.751 mm
T02C0.751
;Holesize 3 = 0.762 mm
T03C0.762
;Holesize 4 = 0.915 mm
T04C0.915
;Holesize 5 = 1.000 mm
T05C1.000
;Holesize 6 = 1.016 mm
T06C1.016
;Holesize 7 = 1.200 mm
T07C1.200
;Holesize 8 = 1.600 mm
T08C1.600
%
T01
X074930Y064770
X088900Y064770
X102870Y064770
X115570Y064770
T02
X039370Y045720
X041910Y043180
X039370Y040640
X054610Y046990
X052070Y046990
X049530Y046990
X046990Y046990
X046990Y039370
X049530Y039370
X052070Y039370
X054610Y039370
X040640Y058420
X043180Y058420
X045720Y058420
X048260Y058420
X050800Y058420
X053340Y058420
X055880Y058420
X058420Y058420
X060960Y058420
X060960Y066040
X058420Y066040
X055880Y066040
X053340Y066040
X050800Y066040
X048260Y066040
X045720Y066040
X043180Y066040
X040640Y066040
T03
X082550Y052070
X087630Y052070
X067310Y043180
X067310Y038100
X073660Y046990
X068580Y046990
X074930Y043180
X074930Y038100
X096520Y052070
X101600Y052070
X120690Y049694
X120690Y059854
X049557Y052120
X059807Y052097
X034340Y068552
X034317Y058302
X060960Y038100
X060960Y048260
X087630Y046990
X082550Y046990
X081280Y043180
X081280Y038100
X088900Y043180
X088900Y038100
X110490Y052070
X115570Y052070
X101600Y046990
X096520Y046990
X102870Y043180
X102870Y038100
X095250Y043180
X095250Y038100
X068580Y052070
X073660Y052070
X115570Y046990
X110490Y046990
X109220Y043180
X109220Y038100
X116840Y043180
X116840Y038100
X050800Y068580
X050800Y073660
X038100Y073660
X040640Y073660
X046990Y073660
X044450Y073660
X045720Y069850
X040640Y069850
X044422Y052019
X034172Y052042
T04
X027940Y066040
X030480Y066040
X031750Y038100
X029210Y038100
X031750Y045720
X029210Y045720
X063500Y052070
X063500Y054610
T05
X029210Y052070
X029210Y054610
X029210Y057150
T06
X073583Y031750
X068580Y031750
X087553Y031750
X082550Y031750
X101523Y031750
X096520Y031750
X115493Y031750
X110490Y031750
X059613Y031750
X054610Y031750
X049583Y031777
X044450Y031750
X039370Y031750
T07
X029179Y029210
X123159Y029210
X029179Y073660
X121889Y073660
M30
